<svg width="162" height="168" viewBox="0 0 162 168" fill="none" xmlns="http://www.w3.org/2000/svg">
<g id="Storico_img">
<path id="Vector" d="M48.2023 56.5194L15.3538 64.9739C14.2395 65.2594 13.0575 65.0914 12.067 64.5068C11.0765 63.9223 10.3584 62.9689 10.0703 61.8559L0.136018 23.2977C-0.149575 22.184 0.0184806 21.0026 0.603318 20.0126C1.18815 19.0226 2.14201 18.3049 3.25562 18.0169L33.8158 10.1514L41.6378 13.6512L51.3219 51.2386C51.6075 52.3523 51.4395 53.5337 50.8546 54.5237C50.2698 55.5137 49.3159 56.2314 48.2023 56.5194Z" fill="#647182"/>
<path id="Vector_2" d="M3.72102 19.3255C2.92723 19.531 2.24731 20.0433 1.83044 20.7498C1.41356 21.4564 1.29377 22.2996 1.49735 23.0944L11.4411 61.7376C11.6465 62.5319 12.1584 63.2123 12.8644 63.6295C13.5704 64.0467 14.413 64.1666 15.2073 63.9629L48.0873 55.4897C48.8811 55.2841 49.561 54.7719 49.9779 54.0654C50.3948 53.3588 50.5146 52.5156 50.311 51.7208L40.7678 14.6343L33.8871 11.5518L3.72102 19.3255Z" fill="#CCE3FA"/>
<path id="Vector 806" d="M17 55L33 51" stroke="#647182" stroke-linecap="round"/>
<path id="Vector_3" d="M41.59 13.7114L36.6223 15.0069C36.2596 15.1015 35.8747 15.0463 35.5522 14.8535C35.2297 14.6607 34.9961 14.346 34.9027 13.9788L33.9579 10.263C33.9537 10.2468 33.9542 10.2296 33.9592 10.2136C33.9643 10.1976 33.9736 10.1834 33.9863 10.1725C33.999 10.1617 34.0144 10.1547 34.0308 10.1523C34.0472 10.1499 34.064 10.1522 34.0791 10.1591L41.6038 13.5432C41.6206 13.5507 41.6346 13.5634 41.6439 13.5793C41.6533 13.5953 41.6575 13.6138 41.656 13.6323C41.6544 13.6508 41.6473 13.6683 41.6355 13.6825C41.6237 13.6967 41.6078 13.7068 41.59 13.7114Z" fill="#647182"/>
<path id="Vector_4" d="M72.9671 24.1639L57.9641 27.9821C57.872 28.0055 57.776 28.0108 57.6818 27.9976C57.5875 27.9845 57.4968 27.9531 57.4149 27.9052C57.3329 27.8574 57.2613 27.7941 57.2041 27.7189C57.1469 27.6437 57.1052 27.5581 57.0815 27.467C57.0578 27.3759 57.0524 27.2811 57.0658 27.188C57.0791 27.0949 57.1109 27.0052 57.1593 26.9242C57.2077 26.8432 57.2717 26.7724 57.3478 26.7159C57.4239 26.6594 57.5105 26.6182 57.6026 26.5947L72.6056 22.7765C72.6978 22.7531 72.7937 22.7478 72.888 22.761C72.9822 22.7742 73.0729 22.8056 73.1549 22.8534C73.2368 22.9012 73.3084 22.9645 73.3656 23.0397C73.4228 23.1149 73.4645 23.2005 73.4882 23.2916C73.512 23.3827 73.5173 23.4775 73.504 23.5706C73.4906 23.6638 73.4589 23.7534 73.4105 23.8344C73.3621 23.9154 73.298 23.9862 73.2219 24.0427C73.1459 24.0993 73.0593 24.1404 72.9671 24.1639Z" fill="#CCCCCC"/>
<path id="Vector_5" d="M76.472 25.637L58.6609 30.4305C58.4756 30.4803 58.279 30.4512 58.1143 30.3496C57.9496 30.2479 57.8303 30.0821 57.7826 29.8885C57.7349 29.6949 57.7627 29.4894 57.86 29.3172C57.9572 29.1451 58.1159 29.0203 58.3012 28.9705L76.1122 24.177C76.2974 24.1273 76.4939 24.1565 76.6585 24.2582C76.823 24.3599 76.9423 24.5257 76.99 24.7191C77.0376 24.9126 77.0098 25.118 76.9127 25.2901C76.8156 25.4622 76.6571 25.587 76.472 25.637Z" fill="#CCCCCC"/>
<path id="Vector_6" d="M94.7514 48.6575H61.0231C59.8793 48.6562 58.7827 48.1973 57.974 47.3816C57.1652 46.5658 56.7103 45.4597 56.709 44.306V4.35149C56.7103 3.1978 57.1652 2.09174 57.974 1.27596C58.7827 0.460181 59.8793 0.0013032 61.0231 0H92.4018L99.0655 5.35746V44.306C99.0642 45.4597 98.6093 46.5658 97.8005 47.3816C96.9918 48.1973 95.8952 48.6562 94.7514 48.6575Z" fill="#647182"/>
<path id="Vector_7" d="M60.8615 1.0498C60.0391 1.05073 59.2507 1.3779 58.6693 1.95952C58.0878 2.54115 57.7607 3.32974 57.7598 4.15228V44.1545C57.7607 44.977 58.0878 45.7656 58.6693 46.3472C59.2507 46.9289 60.0391 47.256 60.8615 47.257H94.9143C95.7366 47.256 96.525 46.9289 97.1065 46.3472C97.688 45.7656 98.0151 44.977 98.016 44.1545V5.76367L92.1035 1.0498H60.8615Z" fill="#CCE3FA"/>
<path id="Vector 800" d="M63 9.71315L93.5653 9.82869" stroke="#647182" stroke-linecap="round"/>
<path id="Vector 802" d="M63 14.7132L93.5653 14.8287" stroke="#647182" stroke-linecap="round"/>
<path id="Vector 803" d="M63 19.7132L93.5653 19.8287" stroke="#647182" stroke-linecap="round"/>
<path id="Vector 804" d="M63 24.7132L93.5653 24.8287" stroke="#647182" stroke-linecap="round"/>
<path id="Vector 807" d="M62.9997 32.7132L77.064 32.7664" stroke="#647182" stroke-linecap="round"/>
<path id="Vector_8" d="M98.9766 5.60087H93.8305C93.4549 5.60087 93.0946 5.44333 92.8289 5.16292C92.5633 4.8825 92.4141 4.50217 92.4141 4.10561V0.0934532C92.4141 0.0758876 92.4188 0.0586782 92.4276 0.0437975C92.4364 0.0289167 92.4491 0.0169678 92.4641 0.0093208C92.479 0.00167378 92.4958 -0.00136185 92.5123 0.000562541C92.5288 0.00248693 92.5445 0.00929311 92.5576 0.0202006L99.0315 5.43416C99.0459 5.44621 99.0564 5.46269 99.0616 5.48132C99.0667 5.49995 99.0662 5.51981 99.0602 5.53813C99.0541 5.55646 99.0428 5.57234 99.0278 5.58359C99.0129 5.59483 98.9949 5.60087 98.9766 5.60087Z" fill="#647182"/>
<path id="Vector_9" d="M99.7859 73.264C99.5838 73.6117 99.2584 73.8609 98.8812 73.9568C98.504 74.0527 98.106 73.9874 97.7747 73.7754L80.7013 62.8466C80.5373 62.7416 80.3945 62.6037 80.2812 62.4408C80.168 62.2779 80.0864 62.0932 80.0411 61.8972C79.9959 61.7012 79.9879 61.4978 80.0175 61.2986C80.0472 61.0993 80.114 60.9081 80.2141 60.736C80.3141 60.5638 80.4455 60.414 80.6008 60.2951C80.756 60.1763 80.932 60.0907 81.1188 60.0432C81.3055 59.9957 81.4994 59.9873 81.6893 60.0184C81.8791 60.0495 82.0613 60.1196 82.2253 60.2246L99.2987 71.1534C99.63 71.3655 99.8675 71.707 99.9589 72.1028C100.05 72.4986 99.988 72.9163 99.7859 73.264Z" fill="#17324D"/>
<path id="Vector_10" d="M84.1473 60.5523C82.4168 63.3894 79.8838 65.6497 76.8687 67.0472C73.8536 68.4447 70.4918 68.9168 67.2084 68.4037C63.925 67.8906 60.8675 66.4154 58.4225 64.1647C55.9775 61.9139 54.2549 58.9887 53.4724 55.7588C52.6899 52.529 52.8828 49.1397 54.0266 46.0195C55.1703 42.8993 57.2137 40.1884 59.8982 38.2295C62.5827 36.2706 65.7878 35.1517 69.1082 35.0144C72.4286 34.877 75.7152 35.7274 78.5523 37.4579C82.3528 39.782 85.0763 43.5187 86.1252 47.8482C87.1741 52.1777 86.4627 56.7466 84.1473 60.5523ZM59.0441 45.2403C57.7462 47.3682 57.1084 49.8331 57.2114 52.3234C57.3144 54.8137 58.1536 57.2175 59.6227 59.2309C61.0919 61.2443 63.1251 62.7768 65.4653 63.6346C67.8055 64.4925 70.3474 64.6371 72.7698 64.0503C75.1921 63.4634 77.3861 62.1714 79.0741 60.3377C80.7622 58.5039 81.8686 56.2108 82.2534 53.7483C82.6382 51.2857 82.2842 48.7644 81.236 46.503C80.1879 44.2417 78.4927 42.342 76.3649 41.0441C73.5106 39.3075 70.084 38.774 66.8368 39.5607C63.5896 40.3474 60.7871 42.3899 59.0441 45.2403Z" fill="#17324D"/>
<path id="Vector_11" d="M118.424 52.4141C123.172 52.4141 127.022 48.5648 127.022 43.8164C127.022 39.0681 123.172 35.2188 118.424 35.2188C113.675 35.2188 109.826 39.0681 109.826 43.8164C109.826 48.5648 113.675 52.4141 118.424 52.4141Z" fill="#A0616A"/>
<path id="Vector_12" d="M122.184 93.1115C122.018 92.5948 121.964 92.049 122.024 91.5097C122.083 90.9704 122.256 90.4499 122.532 89.9822C122.807 89.5145 123.177 89.1102 123.62 88.7958C124.062 88.4814 124.565 88.2639 125.098 88.1577C125.266 88.1248 125.437 88.1038 125.608 88.0948L134.665 73.5594L126.392 65.6948C126.076 65.3943 125.823 65.0342 125.647 64.6352C125.47 64.2362 125.375 63.8063 125.366 63.3703C125.357 62.9343 125.434 62.5008 125.594 62.0948C125.753 61.6889 125.992 61.3185 126.295 61.0052C126.598 60.6918 126.961 60.4417 127.361 60.2692C127.762 60.0967 128.193 60.0053 128.629 60.0002C129.065 59.9951 129.497 60.0765 129.902 60.2396C130.306 60.4028 130.675 60.6444 130.985 60.9506L142.407 72.2132L142.43 72.2412C142.784 72.7788 142.954 73.416 142.917 74.0583C142.879 74.7005 142.636 75.3135 142.222 75.8064L129.533 90.8142C129.571 90.9345 129.602 91.0567 129.627 91.1803C129.733 91.7125 129.726 92.261 129.605 92.7901C129.484 93.3191 129.253 93.8167 128.927 94.2502C128.601 94.6837 128.186 95.0433 127.711 95.3055C127.236 95.5677 126.711 95.7266 126.17 95.7717C126.061 95.7813 125.952 95.7861 125.844 95.7861C125.03 95.7827 124.238 95.5223 123.581 95.0419C122.923 94.5616 122.435 93.886 122.184 93.1115Z" fill="#A0616A"/>
<path id="Vector_13" d="M114.87 163.476L110.579 163.475L108.537 146.922L114.871 146.922L114.87 163.476Z" fill="#A0616A"/>
<path id="Vector_14" d="M115.965 167.636L102.127 167.635V167.46C102.127 166.753 102.266 166.053 102.537 165.399C102.808 164.746 103.204 164.152 103.704 163.652C104.205 163.152 104.798 162.755 105.452 162.484C106.105 162.214 106.806 162.074 107.513 162.074L115.965 162.075L115.965 167.636Z" fill="#2F2E41"/>
<path id="Vector_15" d="M157.526 157.541L153.839 159.737L143.615 146.559L149.058 143.318L157.526 157.541Z" fill="#A0616A"/>
<path id="Vector_16" d="M160.595 160.557L148.705 167.636L148.616 167.486C148.254 166.878 148.015 166.205 147.913 165.505C147.812 164.805 147.849 164.092 148.023 163.406C148.197 162.721 148.504 162.076 148.927 161.509C149.35 160.942 149.88 160.464 150.488 160.102L157.75 155.778L160.595 160.557Z" fill="#2F2E41"/>
<path id="Vector_17" d="M107.996 156.185C105.121 122.333 103.411 90.8845 113.92 78.0555L114.002 77.9561L131.688 85.031L131.717 85.0942C131.777 85.2241 137.659 98.1628 136.287 106.866L140.65 126.934L154.874 150.752C154.989 150.943 155.061 151.157 155.087 151.379C155.113 151.601 155.091 151.826 155.023 152.038C154.955 152.251 154.843 152.447 154.693 152.613C154.544 152.779 154.361 152.912 154.157 153.002L147.975 155.721C147.626 155.873 147.234 155.894 146.871 155.781C146.508 155.667 146.198 155.427 145.998 155.103L130.524 129.871L121.784 110.518C121.736 110.413 121.656 110.327 121.554 110.272C121.452 110.218 121.336 110.198 121.222 110.216C121.108 110.234 121.003 110.29 120.924 110.373C120.845 110.457 120.795 110.564 120.783 110.679L115.938 156.22C115.898 156.607 115.715 156.965 115.426 157.225C115.137 157.486 114.761 157.629 114.372 157.629H109.566C109.172 157.626 108.793 157.477 108.502 157.21C108.212 156.943 108.031 156.578 107.996 156.185Z" fill="#0059B2"/>
<path id="Vector_18" d="M112.274 83.4072L112.181 83.3985L112.137 83.3162C109.915 79.2074 108.868 74.1168 109.025 68.1858C109.11 65.2804 110.235 62.5019 112.196 60.3566C114.157 58.2113 116.824 56.8419 119.71 56.498C121.376 56.3101 123.064 56.4704 124.665 56.9686C126.266 57.4669 127.746 58.2922 129.012 59.3924C130.262 60.482 131.273 61.8195 131.98 63.3201C132.687 64.8208 133.074 66.4518 133.118 68.11C133.326 76.6905 132.58 85.0668 132.572 85.1504L132.557 85.3254L112.274 83.4072Z" fill="#006EDB"/>
<path id="Vector_19" d="M94.6833 66.8062C95.1092 66.47 95.6013 66.2276 96.1274 66.0948C96.6535 65.962 97.2017 65.9419 97.7361 66.0357C98.2705 66.1296 98.7791 66.3353 99.2284 66.6394C99.6778 66.9435 100.058 67.3391 100.344 67.8003C100.434 67.9467 100.513 68.0992 100.581 68.2568L117.368 71.6496L121.838 61.1467C122.008 60.7454 122.257 60.3819 122.569 60.0772C122.881 59.7725 123.25 59.5326 123.656 59.3714C124.061 59.2103 124.494 59.131 124.93 59.1381C125.366 59.1453 125.796 59.2388 126.196 59.4132C126.596 59.5876 126.957 59.8395 127.259 60.1543C127.561 60.4691 127.797 60.8406 127.955 61.2473C128.112 61.654 128.188 62.0878 128.176 62.5238C128.165 62.9598 128.068 63.3893 127.89 63.7874L121.34 78.4302L121.322 78.4616C120.942 78.9808 120.405 79.3637 119.79 79.5535C119.176 79.7433 118.516 79.7299 117.91 79.5152L99.4085 72.8849C99.309 72.9625 99.2056 73.0348 99.0986 73.1016C98.6373 73.3874 98.1209 73.5724 97.5831 73.6447C97.0453 73.7169 96.4983 73.6747 95.978 73.5208C95.4577 73.3669 94.9757 73.1048 94.5637 72.7516C94.1518 72.3985 93.8191 71.9623 93.5874 71.4716C93.5402 71.3726 93.4976 71.2723 93.4597 71.171C93.1778 70.4073 93.1444 69.5741 93.3641 68.7903C93.5839 68.0065 94.0456 67.3121 94.6833 66.8062Z" fill="#A0616A"/>
<path id="Vector_20" d="M149.484 53.0248C148.656 51.5574 147.449 50.2134 145.854 49.671C143.794 48.9705 141.564 49.7164 139.446 50.2143C137.814 50.598 136.109 50.8328 134.464 50.509C132.82 50.1853 131.233 49.2281 130.485 47.7282C129.384 45.5216 130.312 42.8902 130.245 40.4252C130.21 39.0833 129.871 37.7667 129.254 36.5747C128.637 35.3827 127.757 34.3464 126.681 33.5438C125.605 32.7413 124.361 32.1934 123.043 31.9416C121.724 31.6898 120.366 31.7406 119.07 32.0902C117.042 31.5049 115.205 31.4508 113.951 33.0098C112.373 33.0098 110.859 33.6368 109.743 34.7528C108.627 35.8688 108 37.3825 108 38.9607H113.69C113.42 40.4117 113.729 41.9106 114.549 43.1373C115.554 44.613 117.301 45.6806 117.637 47.4338C117.963 49.1328 116.808 50.7449 115.596 51.9799C114.385 53.2149 112.98 54.4386 112.601 56.1267C112.37 57.4082 112.633 58.7299 113.338 59.8249C114.041 60.9067 114.914 61.8682 115.923 62.6729C120.469 66.5671 125.871 69.3308 131.689 70.7383C135.786 71.7246 140.267 71.9803 144.071 70.1657C145.592 69.4398 146.948 68.4088 148.054 67.1368C149.16 65.8647 149.993 64.3788 150.501 62.7712C151.009 61.1637 151.18 59.469 151.005 57.7923C150.831 56.1157 150.313 54.4929 149.484 53.0248Z" fill="#2F2E41"/>
<path id="Vector_21" d="M161.292 168H26.7083C26.5205 168 26.3403 167.947 26.2074 167.854C26.0746 167.76 26 167.633 26 167.5C26 167.367 26.0746 167.24 26.2074 167.146C26.3403 167.053 26.5205 167 26.7083 167H161.292C161.48 167 161.66 167.053 161.793 167.146C161.925 167.24 162 167.367 162 167.5C162 167.633 161.925 167.76 161.793 167.854C161.66 167.947 161.48 168 161.292 168Z" fill="#CCCCCC"/>
<path id="Vector 797" d="M7.99955 26.8579L35.1645 19.9317" stroke="#647182" stroke-linecap="round"/>
<path id="Vector 798" d="M9.86088 32.2358L37.0258 25.3096" stroke="#647182" stroke-linecap="round"/>
<path id="Vector 799" d="M11.6853 38.136L38.173 31.257" stroke="#647182" stroke-linecap="round"/>
<path id="Vector 800_2" d="M13.0006 43.7558L39.4893 36.9084" stroke="#647182" stroke-linecap="round"/>
</g>
</svg>
