<svg width="28" height="28" viewBox="0 0 28 28" fill="none" xmlns="http://www.w3.org/2000/svg">
<path d="M24.6665 0.667969H8.6665C7.19984 0.667969 5.99984 1.86797 5.99984 3.33464V19.3346C5.99984 20.8013 7.19984 22.0013 8.6665 22.0013H24.6665C26.1332 22.0013 27.3332 20.8013 27.3332 19.3346V3.33464C27.3332 1.86797 26.1332 0.667969 24.6665 0.667969ZM13.3332 10.668C13.3332 11.7746 12.4398 12.668 11.3332 12.668H9.99984V15.3346H7.99984V7.33464H11.3332C12.4398 7.33464 13.3332 8.22797 13.3332 9.33464V10.668ZM19.9998 13.3346C19.9998 14.4413 19.1065 15.3346 17.9998 15.3346H14.6665V7.33464H17.9998C19.1065 7.33464 19.9998 8.22797 19.9998 9.33464V13.3346ZM25.3332 9.33464H23.3332V10.668H25.3332V12.668H23.3332V15.3346H21.3332V7.33464H25.3332V9.33464ZM9.99984 10.668H11.3332V9.33464H9.99984V10.668ZM3.33317 6.0013H0.666504V24.668C0.666504 26.1346 1.8665 27.3346 3.33317 27.3346H21.9998V24.668H3.33317V6.0013ZM16.6665 13.3346H17.9998V9.33464H16.6665V13.3346Z" fill="#006EDB"/>
</svg>
