<svg width="21" height="20" viewBox="0 0 21 20" fill="none" xmlns="http://www.w3.org/2000/svg">
<path fill-rule="evenodd" clip-rule="evenodd" d="M0.0869141 10C0.0869141 4.47715 4.75873 0 10.5217 0C13.2892 0 15.9433 1.05357 17.9002 2.92893C19.8571 4.8043 20.9565 7.34784 20.9565 10C20.9565 15.5228 16.2847 20 10.5217 20C4.75873 20 0.0869141 15.5228 0.0869141 10ZM1.13039 10C1.13039 14.9706 5.33502 19 10.5217 19C15.7084 19 19.913 14.9706 19.913 10C19.913 5.02944 15.7084 1 10.5217 1C5.33502 1 1.13039 5.02944 1.13039 10ZM9.79126 4H11.3565V6H9.79126V4ZM11.3565 7H9.79126V16H11.3565V7Z" fill="#007AFF"/>
</svg>
