<svg width="31" height="22" viewBox="0 0 31 22" fill="none" xmlns="http://www.w3.org/2000/svg">
<path d="M24.6875 8.305C23.8375 3.56125 20.05 0 15.5 0C11.8875 0 8.75 2.255 7.1875 5.555C3.425 5.995 0.5 9.50125 0.5 13.75C0.5 18.3013 3.8625 22 8 22H24.25C27.7 22 30.5 18.92 30.5 15.125C30.5 11.495 27.9375 8.5525 24.6875 8.305ZM24.25 19.25H8C5.2375 19.25 3 16.7887 3 13.75C3 10.9312 4.9125 8.58 7.45 8.29125L8.7875 8.14L9.4125 6.83375C10.6 4.3175 12.925 2.75 15.5 2.75C18.775 2.75 21.6 5.3075 22.2375 8.84125L22.6125 10.9038L24.525 11.055C26.475 11.1925 28 12.9937 28 15.125C28 17.3937 26.3125 19.25 24.25 19.25ZM10.5 12.375H13.6875V16.5H17.3125V12.375H20.5L15.5 6.875L10.5 12.375Z" fill="#99C7F5"/>
</svg>
